<svg width="1920" height="1080" version="1.1" xmlns="http://www.w3.org/2000/svg">
  <defs>
		<linearGradient id="BgGradient" x1="0" x2="0" y1="0" y2="1">
			<stop offset="0%" stop-color="#000000" />
			<stop offset="100%" stop-color="#a700ff" />
		</linearGradient>
  </defs>
  <g>
    <rect x="0" y="0" width="1920" height="1080" fill="url(#BgGradient)" />
    <text x="35" y="150" class="segoefont" fill="#a700ff">PCOS 3</text>
    <text x="1555" y="1030" class="segoefont" fill="#303030">installer</text>
  </g>
  <g transform="matrix(1.3, 0, 0, 1.3, 640, 444)">
		<rect x="15" y="15" width="40" height="35" fill="#000000" />
		<rect x="17" y="17" width="36" height="31" fill="#a700ff" />
		<line x1="55" y1="32" x2="78" y2="32" stroke="#000000" stroke-width="8" />
		<rect x="73" y="15" width="40" height="35" fill="#000000" />
		<rect x="75" y="17" width="36" height="31" fill="#a700ff" />
		<line x1="35" y1="50" x2="54" y2="78" stroke="#000000" stroke-width="8" />
		<line x1="93" y1="50" x2="74" y2="78" stroke="#000000" stroke-width="8" />
		<rect x="44" y="78" width="40" height="35" fill="#000000" />
		<rect x="46" y="80" width="36" height="31" fill="#a700ff" />
  </g>
  <g transform="translate(1024, 412)">
    <rect x="16" y="16" width="192" height="256" fill="#7f7f7f" />
    <circle cx="112" cy="112" r="64" fill="#4f4f4f" />
    <rect x="24" y="192" width="176" height="64" fill="#2a2a2a" />
    <rect x="32" y="200" width="160" height="48" fill="#007f00" />
    <rect x="192" y="16" width="72" height="16" transform="rotate(45)" fill="#2a2a2a" />
  </g>
  <g>
		<line x1="800" y1="540" x2="1024" y2="540" stroke="#000000" stroke-width="8" />
		<line x1="1024" y1="540" x2="960" y2="476" stroke="#000000" stroke-width="8" />
		<line x1="1024" y1="540" x2="960" y2="604" stroke="#000000" stroke-width="8" />
  </g>
  <style>
		.segoefont {
			font-family: 'Segoe UI', Tahoma, Geneva, Verdana, sans-serif;
			font-size: 64px;
			font-weight: bold;
		}
	</style>
</svg>
