<!-- Made with Inkscape -->
<svg width="1920" height="1080" version="1.1" xmlns="http://www.w3.org/2000/svg">
	<defs>
		<linearGradient id="BgGradient" x1="0" x2="0" y1="0" y2="1">
			<stop offset="0%" stop-color="#000000" />
			<stop offset="100%" stop-color="#a700ff" />
		</linearGradient>
	</defs>
	<g>
		<rect x="0" y="0" width="1920" height="1080" fill="url(#BgGradient)" style="display:inline" />
		<text x="35" y="150" class="segoefont" fill="#a700ff">PCOS 3</text>
		<text x="1355" y="1030" class="segoefont" fill="#303030">Happy New Year!</text>
	</g>
	<style>
		.segoefont {
			font-family: 'Segoe UI', Tahoma, Geneva, Verdana, sans-serif;
			font-size: 64px;
			font-weight: bold;
		}
	</style>
	<g transform="matrix(2.31, 0, 0, 2.31, -1704.31, -230.25)">
		<rect style="fill: #803300; fill-opacity: 1; stroke-width: 1;" width="32" height="80" x="1296" y="425" />
		<path style="fill: #009900; fill-opacity: 1; stroke-width: 1;" d="m 1166,473 149,-168 148,168 -51,-38 -28,29 -31,-28 -27,30 -28,-28 -27,28 -22,-30 -23,27 -18,-30 z" />
		<path style="fill: #00a300; fill-opacity: 1; stroke-width: 1;" d="m 1176,412 136,-149 136,150 -47,-34 -25,26 -28,-25 -24,27 -26,-25 -25,25 -20,-27 -21,24 -17,-27 z" />
		<path style="fill: #00ad00; fill-opacity: 1; stroke-width: 1;" d="m 1198,347 114,-123 113,124 -39,-28 -21,22 -23,-20 -20,22 -21,-21 -21,21 -17,-22 -18,20 -14,-22 z" />
		<path style="fill: #00c200; fill-opacity: 1; stroke-width: 1;" d="m 1219,292 92,-96 91,97 -31,-22 -17,17 -19,-16 -16,17 -17,-16 -17,16 -13,-18 -14,16 -11,-17 z" />
		<path style="fill: #c71b00; fill-opacity: 1" d="m 1064,274 63,-167 53,161 -160,-102 208,-6 z" transform="matrix(0.43, 0, 0, 0.43, 825.28, 111.37)" />
		<path style="fill: #eacf00; fill-opacity: 1; stroke-width: 1;" d="m 1303,542 -136,-31 -146,77 -103,-9 -18,64 70,-50 11,60 58,-53 10,42 40,-73 29,37 27,-70 17,47 34,-61 22,67 31,-52 34,70 z" transform="matrix(0.43, 0, 0, 0.43, 825.28, 111.37)" />
		<path style="fill: #eacf00; fill-opacity: 1; stroke-width: 1;" d="m 997,320 90,-38 76,35 65,-19 -1,42 -33,-26 -19,43 -25,-29 -14,30 -10,-46 -25,29 -3,-45 -20,35 -9,-38 -6,45 -30,-28 -1,50 z" transform="matrix(0.43, 0, 0, 0.43, 825.28, 111.37)" />
		<g transform="matrix(0.41, 0, 0, 0.41, 1103.51, 94.1)">
			<path style="fill: #0d0100; fill-opacity: 1;" d="m 284,567 c 7,-2 15,-3 22,-3 8,0 15,0 22,2 5,1 10,3 15,4 7,1 15,1 22,1 8,1 17,1 25,2 5,0 10,1 14,1 5,1 10,1 15,1 6,0 13,0 19,0 7,0 13,0 20,0 4,0 8,0 12,0 2,0 4,0 6,-1 2,-1 4,-3 5,-4 2,-2 3,-3 5,-5 2,-2 3,-5 4,-8 3,-4 5,-8 9,-11 4,-4 8,-7 13,-10 8,-4 16,-6 25,-8 7,-1 13,-1 20,-2 9,-2 19,-4 28,-6 7,-1 13,-2 20,-2 9,-1 18,-1 28,-2 8,0 16,-1 24,-3 6,-1 12,-3 18,-5 3,-1 6,-2 9,-2 2,0 3,0 5,0 0,0 -3,-2 -3,-2 v 0 c -2,0 -3,0 -5,0 -3,0 -6,1 -9,2 -6,2 -12,4 -18,5 -8,2 -16,3 -24,3 -9,0 -18,0 -28,2 -7,1 -13,1 -20,3 -9,2 -19,4 -28,6 -7,1 -13,1 -20,2 -9,1 -17,4 -25,8 -5,3 -9,6 -13,10 -3,4 -6,7 -9,12 -2,2 -3,5 -4,7 -2,2 -3,3 -5,5 -1,2 -3,3 -5,4 -2,1 -4,1 -6,1 -4,0 -8,0 -12,0 -7,0 -13,0 -20,0 -6,0 -13,0 -19,0 -5,0 -10,0 -15,-1 -5,-1 -10,-1 -14,-1 -8,0 -17,-1 -25,-1 -7,0 -15,-1 -22,-1 -5,-1 -10,-3 -15,-4 -7,-2 -15,-3 -22,-2 -8,0 -15,1 -22,3 0,0 3,2 3,2 z" />
			<path style="fill: #0055eb; fill-opacity: 1;" d="m 443,595 -21,-5 -16,14 -1,-21 -18,-11 20,-8 5,-21 13,16 21,-2 -11,18 z" />
			<circle style="fill: #c00f00; fill-opacity: 1;" cx="526" cy="540" r="25" />
			<path style="fill: #0055eb; fill-opacity: 1;" d="m 651,531 -25,-4 -17,18 -4,-25 -23,-11 22,-12 3,-25 18,18 25,-5 -11,22 z" transform="translate(10, 11)" />
			<circle style="fill: #c00f00; fill-opacity: 1;" cx="322" cy="572" r="25" />
		</g>
		<g transform="matrix(-0.49, 0, 0, 0.43, 1496.73, 133.93)">
			<path style="fill: #000000; fill-opacity: 1" d="m 177,712 c -1,-8 1,-15 3,-23 2,-5 3,-11 6,-15 7,-7 15,-13 22,-20 6,-4 13,-9 20,-12 4,-1 6,-2 10,-3 7,-1 15,-2 22,-2 6,0 11,0 17,0 7,0 14,0 21,1 5,1 9,1 14,3 2,1 4,2 6,2 5,2 10,5 15,7 9,3 18,6 27,9 6,2 12,3 18,4 4,1 8,1 11,1 7,1 15,2 23,3 7,1 14,1 21,2 5,0 11,1 16,1 3,0 7,0 10,0 6,0 11,0 17,0 6,0 12,-1 17,-1 4,0 7,-1 11,-2 5,-2 10,-6 15,-9 4,-3 9,-5 13,-8 3,-1 5,-3 8,-5 5,-4 10,-8 16,-12 0,0 -3,-2 -3,-2 v 0 c -5,4 -10,8 -16,12 -2,2 -5,4 -8,5 -4,3 -9,5 -13,8 -5,3 -10,7 -15,9 -3,1 -7,2 -11,2 -6,1 -11,1 -17,1 -6,0 -11,0 -17,0 -3,0 -7,0 -10,0 -5,0 -11,-1 -16,-1 -7,0 -14,-1 -21,-2 -8,-1 -15,-2 -23,-3 -4,-1 -8,0 -11,-1 -6,-1 -12,-2 -18,-4 -9,-3 -18,-5 -27,-9 -5,-2 -10,-5 -15,-7 -2,-1 -4,-2 -6,-2 -4,-1 -9,-2 -14,-3 -7,-1 -14,-1 -21,-1 -6,0 -11,0 -17,0 -7,0 -15,0 -22,2 -4,1 -6,1 -10,3 -7,3 -14,8 -20,12 -8,6 -16,13 -23,20 -3,4 -4,10 -6,15 -2,7 -4,15 -4,23 0,0 3,2 3,2 z" />
			<path style="fill: #a700ff; fill-opacity: 1" d="m 276,790 -49,-8 -34,36 -8,-49 -45,-21 44,-23 6,-49 35,35 49,-9 -22,44 z" transform="matrix(0.48, 0, 0, 0.46, 107.19, 333.2)" />
			<circle style="fill: #ffb60d; fill-opacity: 1; stroke-width: 1;" cx="298" cy="656" r="25" />
			<path style="fill: #ff1aa0; fill-opacity: 1;" d="m 423,696 -23,-10 -21,13 2,-25 -19,-16 24,-6 9,-23 13,21 25,1 -16,19 z" transform="translate(10, -11)" />
			<circle style="fill: #00cadc; fill-opacity: 1;" cx="510" cy="664" r="26" />
		</g>
	</g>
</svg>
